<svg width="246" height="458" viewBox="0 0 246 458" fill="none" xmlns="http://www.w3.org/2000/svg">
<path d="M203.239 129.695C207.114 131.43 210.975 133.379 213.869 136.5C215.745 138.566 217.765 141.713 217.46 144.627C217.46 144.627 217.592 144.619 217.673 144.64C217.887 144.654 218.019 144.646 218.211 144.741C218.513 144.909 218.734 145.055 218.86 145.393C219.008 145.65 219.002 145.996 218.886 146.268C218.834 146.298 218.813 146.379 218.739 146.489C221.47 149.089 224.033 151.991 226.588 154.761C229.114 157.479 232.052 160.439 232.729 164.223C232.796 164.458 232.48 164.504 232.391 164.35C228.695 157.584 222.514 152.799 217.55 147.038C217.55 147.038 217.388 146.995 217.359 146.943C217.138 146.797 216.976 146.754 216.806 146.578L216.747 146.475C214.428 147.675 211.821 146.715 209.516 145.922C206.615 144.926 203.787 143.819 201.389 141.917C200.526 141.251 201.05 139.785 202.198 139.877C204.684 140.154 207.157 140.644 209.557 141.245C209.961 141.354 210.447 141.484 210.903 141.563C209.892 140.641 208.955 139.608 208.017 138.574C207.019 137.439 206.147 136.162 205.325 134.857C204.526 133.47 203.778 132.054 202.597 130.955C202.036 130.457 202.473 129.316 203.29 129.666" fill="#C1A7D1"/>
<path d="M198.163 72.4674C201.238 74.5953 203.712 77.3433 205.629 80.5494C206.725 82.4497 207.785 84.6443 208.316 86.8703C208.547 87.6269 208.882 88.8021 208.724 89.7146C208.747 90.1116 208.741 90.4572 208.735 90.8029C208.729 91.1485 208.127 91.2906 208.052 90.9232L207.993 90.8205C207.993 90.8205 207.779 90.8066 207.699 90.7849C207.234 90.5734 207.057 90.2652 206.82 89.8544C206.709 89.7813 206.628 89.7595 206.518 89.6864C203.996 87.924 202.124 85.034 200.614 82.4146C198.985 79.5898 198.37 76.386 196.925 73.5237C196.48 72.7533 197.581 72.0505 198.193 72.5187" fill="#C1A7D1"/>
<path d="M223.619 86.9432C223.844 86.2658 224.94 86.3865 225.009 87.0996C225.139 88.3933 225.218 89.7166 225.245 91.0696C226.164 89.1026 227.304 87.2818 228.636 85.5559C229.104 84.9437 230.26 85.1672 230.336 86.0126C230.52 87.7547 230.673 89.4454 230.511 91.1815C230.356 93.0499 229.694 94.8688 228.892 96.5632C228.09 98.2577 227.066 99.8059 226.013 101.303C225.523 101.996 224.946 103.013 224.154 103.538C224.132 103.619 224.089 103.781 224.067 103.862C223.747 104.731 222.585 104.853 221.987 104.172C221.071 103.057 221.123 101.248 221.066 99.8439C220.979 98.3882 221.106 96.9465 221.233 95.5047C221.411 94.0333 221.648 92.6646 222.018 91.288C222.214 90.5592 222.409 89.8305 222.656 89.0721C222.933 88.3651 223.291 87.6798 223.567 86.9728" fill="#C1A7D1"/>
<path d="M229.327 117.732C229.722 117.231 230.214 117.016 230.817 116.874C231.654 116.665 232.306 117.794 231.816 118.488C231.804 119.179 231.527 119.886 231.183 120.358C230.737 120.889 229.972 120.988 229.492 120.511C229.072 120.138 228.908 119.617 228.957 119.109C228.823 118.639 229.056 118.094 229.379 117.703" fill="#C1A7D1"/>
<path d="M225.681 127.431C227.406 124.726 228.645 121.89 229.906 118.973C230.161 118.347 231.008 118.748 230.804 119.344C230.071 121.752 228.83 124.11 227.603 126.255C226.251 128.539 224.333 130.672 223.607 133.212C222.925 135.59 223.626 137.992 224.994 140.009C226.503 142.15 228.714 143.612 230.626 145.384C230.796 145.56 230.62 145.73 230.428 145.635C226.5 143.452 222.095 139.49 222.487 134.474C222.727 131.803 224.373 129.554 225.732 127.402" fill="#C1A7D1"/>
<path d="M248.984 138.768C248.984 138.768 249.454 138.634 249.338 138.907C245.355 149.21 239.179 158.793 231.887 167.036C231.462 167.486 230.607 166.952 231.083 166.472C238.448 158.12 244.243 148.824 248.984 138.768" fill="#C1A7D1"/>
<path d="M234.363 105.932C236.02 102.992 237.994 100.006 240.345 97.5555C240.873 97.046 241.801 97.4689 241.473 98.2056C240.374 101.166 239.356 104.148 237.823 106.948C237.75 107.059 237.566 107.097 237.485 107.075C237.238 107.833 236.91 108.57 236.582 109.306C236.283 110.094 236.066 110.904 235.495 111.576C235.048 112.107 234.363 111.749 234.353 111.139C234.358 110.315 234.707 109.498 235.006 108.71L235.101 108.518C233.86 110.876 232.708 113.388 231.629 115.789C231.206 116.718 229.873 116.186 230.134 115.214C231.187 111.938 232.602 108.932 234.23 105.94" fill="#C1A7D1"/>
<path d="M235.231 108.032C237.515 105.347 240.168 103.064 243.11 101.163C244.159 100.489 246.125 101.408 245.359 102.808C245.213 103.03 245.118 103.221 245.001 103.494C244.698 106.885 243.234 110.398 241.015 112.841C239.844 114.132 238.443 115.145 236.932 116.085C236.161 116.529 235.391 116.973 234.591 117.366C233.769 117.84 232.748 118.087 232.007 118.582C230.834 119.396 229.307 118.291 229.839 116.958C230.922 113.733 233.101 110.629 235.312 108.054" fill="#C1A7D1"/>
<path d="M252.568 149.02C254.226 146.079 256.2 143.093 258.551 140.643C259.079 140.133 260.007 140.556 259.679 141.293C258.58 144.253 257.562 147.236 256.029 150.036C255.955 150.146 255.772 150.184 255.691 150.162C255.444 150.921 255.116 151.657 254.788 152.394C254.489 153.182 254.272 153.992 253.701 154.663C253.254 155.194 252.569 154.836 252.559 154.226C252.563 153.403 252.913 152.585 253.212 151.797L253.306 151.605C252.066 153.963 250.913 156.475 249.834 158.877C249.412 159.805 248.078 159.273 248.339 158.302C249.393 155.025 250.808 152.02 252.436 149.028" fill="#C1A7D1"/>
<path d="M237.558 133.312C237.34 134.122 237.101 135.013 236.883 135.822L237.037 135.733C238.164 134.126 239.069 132.372 239.76 130.605C240.569 128.565 240.98 126.548 241.303 124.378C241.439 123.546 241.576 122.715 241.682 121.832C241.544 122.185 241.354 122.568 241.186 122.871C240.465 124.587 239.773 126.354 239.133 128.092C238.544 129.801 237.955 131.509 237.528 133.261L237.558 133.312ZM237.456 118.657C237.719 118.163 238.594 118.138 238.634 118.799C238.659 119.674 238.714 120.601 238.74 121.476C238.799 121.578 238.858 121.681 238.785 121.792L238.734 121.821C238.795 122.402 238.775 122.961 238.725 123.468C238.966 123.056 239.156 122.673 239.397 122.26C239.879 121.434 240.361 120.609 240.924 119.805C241.268 119.333 241.553 118.759 242.126 118.565C242.147 118.484 242.169 118.403 242.242 118.293C242.286 118.131 242.55 118.115 242.588 118.299C243.235 120.252 243.237 122.51 243.149 124.613C243.048 126.93 242.631 129.292 241.992 131.508C241.367 133.511 240.368 135.456 239.168 137.174C238.554 138.007 237.91 138.789 237.206 139.468C236.43 140.258 235.632 141.129 234.484 141.038C234.271 141.024 234.16 140.951 233.969 140.856C233.653 140.901 233.329 140.815 233.181 140.558C232.168 139.157 232.028 137.253 232.058 135.525C232.029 133.694 232.316 131.818 232.765 129.985C233.741 125.863 235.676 122.216 237.632 118.487" fill="#C1A7D1"/>
<path d="M253.488 151.09C255.772 148.405 258.425 146.122 261.367 144.221C262.416 143.547 264.383 144.466 263.616 145.866C263.47 146.088 263.375 146.279 263.258 146.552C262.955 149.943 261.491 153.456 259.272 155.899C258.101 157.19 256.7 158.203 255.189 159.143C254.418 159.587 253.648 160.031 252.848 160.424C252.026 160.898 251.005 161.145 250.264 161.64C249.091 162.454 247.564 161.349 248.096 160.016C249.179 156.791 251.359 153.687 253.569 151.112" fill="#C1A7D1"/>
<path d="M199.01 91.6201C201.346 92.942 203.763 94.2857 205.661 96.2712C207.248 97.9563 209.069 100.876 208.254 103.262L208.152 103.321C208.152 103.321 208.057 103.512 207.924 103.52C206.117 103.947 204.136 103.241 202.377 102.682C200.455 102.079 198.731 101.225 197.218 99.9072C196.547 99.3363 196.962 98.2757 197.867 98.3016C198.933 98.371 200.081 98.4622 201.125 98.6125C199.7 96.9709 198.501 95.1298 197.427 93.1485C196.954 92.3267 198.022 91.0945 198.929 91.5984" fill="#C1A7D1"/>
<path d="M201.339 106.223C203.239 106.907 205.198 107.693 206.813 108.952C208.097 109.991 209.08 111.34 209.806 112.837C210.199 113.637 210.519 114.548 210.809 115.407C210.898 115.561 210.965 115.796 211.032 116.031C211.135 115.972 211.238 115.913 211.348 115.986C212.113 115.888 212.908 116.318 213.139 117.075C213.295 117.464 213.238 117.839 213.129 118.244C215.817 119.226 218.841 119.604 221.098 121.383C221.57 121.726 221.007 122.53 220.505 122.135C218.278 120.408 215.159 120.222 212.918 118.708C212.845 118.819 212.72 118.959 212.566 119.048C211.958 119.536 211.053 119.51 210.441 119.041C210.301 118.917 210.16 118.792 210.042 118.587C208.764 118.982 206.754 118.225 205.752 117.912C203.72 117.236 201.826 116.207 200.079 114.956C199.466 114.488 199.631 113.23 200.506 113.204C201.594 113.193 202.969 113.085 204.248 113.168C202.866 111.364 201.792 109.383 200.183 107.779C199.504 107.075 200.478 106.035 201.266 106.333" fill="#C1A7D1"/>
<path d="M222.364 104.707C222.414 104.199 222.714 103.889 223.17 103.968C223.384 103.982 223.532 104.239 223.356 104.409C223.18 104.579 223.314 105.049 223.3 105.262C223.33 105.313 223.308 105.394 223.286 105.475C223.369 105.975 223.172 106.226 222.856 106.271C222.247 106.759 221.414 106.145 221.661 105.386C221.748 105.062 221.997 104.782 222.313 104.736" fill="#C1A7D1"/>
<path d="M249.61 125.61C249.864 124.984 250.99 125.156 250.978 125.848C250.976 127.149 250.974 128.451 250.869 129.812C251.898 127.918 253.23 126.192 254.672 124.539C255.221 123.949 256.303 124.283 256.351 125.077C256.402 126.827 256.423 128.525 256.128 130.269C255.812 132.094 255.069 133.891 254.104 135.542C253.162 137.112 252.028 138.587 250.864 140.011C250.345 140.653 249.687 141.648 248.865 142.122C248.843 142.203 248.8 142.365 248.778 142.446C248.377 143.293 247.237 143.334 246.69 142.623C245.877 141.45 246.061 139.633 246.085 138.25C246.131 136.786 246.338 135.366 246.597 133.917C246.857 132.467 247.256 131.142 247.706 129.787C247.983 129.08 248.179 128.351 248.537 127.666C248.813 126.959 249.281 126.347 249.61 125.61" fill="#C1A7D1"/>
<path d="M246.603 142.947L246.654 142.917C246.777 142.299 247.18 141.93 247.747 142.082C247.99 142.147 248.168 142.455 247.94 142.655C247.713 142.854 247.855 143.457 247.82 143.751L247.754 143.994C247.815 144.575 247.515 144.885 247.148 144.96C246.356 145.485 245.352 144.695 245.746 143.715C245.884 143.361 246.236 143.022 246.654 142.917" fill="#C1A7D1"/>
<path d="M207.651 89.9908C207.651 89.9908 207.886 89.9237 207.997 89.9968L208.048 89.9672C208.048 89.9672 208.475 89.995 208.645 90.1708C208.815 90.3466 208.933 90.552 209 90.7871C209.186 91.2276 209.136 91.7352 208.976 92.1697C208.881 92.3612 208.676 92.4797 208.462 92.4658C207.904 92.4459 207.453 92.0212 207.238 91.5293C206.993 90.9861 207.086 90.3166 207.651 89.9908" fill="#C1A7D1"/>
<path d="M196.504 74.9298C198.002 76.4609 199.09 78.2289 200.156 80.0778C200.666 80.6053 201.124 81.1624 201.633 81.6899C202.771 82.9503 203.967 84.3134 204.745 85.7811C204.893 86.0379 204.776 86.3104 204.601 86.4802C204.689 86.6343 204.859 86.8101 204.999 86.9346C205.487 87.5431 204.681 88.2816 204.047 87.8943C201.814 86.5131 199.79 84.1899 198.281 82.0485C196.862 80.0612 195.853 77.837 195.469 75.3898C195.378 74.7577 196.134 74.5268 196.504 74.9298Z" fill="#C1A7D1"/>
<path d="M208.842 91.6995C212.131 96.0988 214.557 101.612 214.939 107.14C214.992 107.589 214.309 107.709 214.175 107.239C213.694 104.505 213.191 101.853 212.239 99.2531C211.288 96.6536 209.999 94.1805 208.482 91.9068C208.364 91.7013 208.642 91.4723 208.791 91.7291" fill="#C1A7D1"/>
<path d="M222.941 105.469C222.436 108.156 222.013 110.863 221.538 113.601C221.129 116.095 220.601 118.384 221.096 120.904C221.155 121.007 220.942 120.993 220.942 120.993C219.89 118.931 220.497 116.186 220.819 114.015C221.257 111.094 221.753 108.276 222.595 105.463C222.639 105.302 222.933 105.337 222.919 105.55" fill="#C1A7D1"/>
<path d="M204.992 100.215C205.914 100.984 207.005 101.45 208.073 101.997C208.073 101.997 208.154 102.019 208.235 102.041C208.235 102.041 208.5 102.025 208.662 102.069C209.118 102.148 209.509 102.47 209.613 102.889C210.668 103.649 211.547 104.58 212.352 105.621C213.335 106.97 214.194 108.46 215.104 109.919C215.963 111.409 217.087 112.883 217.659 114.469C217.718 114.571 217.564 114.66 217.505 114.558C216.287 113.275 215.369 111.683 214.429 110.172C213.578 108.815 212.749 107.377 211.744 106.109C211.078 105.192 210.288 104.416 209.345 103.728C209.19 103.817 208.985 103.935 208.831 104.024C208.78 104.054 208.699 104.032 208.618 104.01C208.258 104.218 207.751 104.168 207.492 103.838C207.233 103.508 207.239 103.163 207.378 102.809C207.348 102.758 207.37 102.677 207.391 102.596C206.353 102.1 205.365 101.574 204.619 100.636C204.471 100.379 204.741 100.018 204.992 100.215" fill="#C1A7D1"/>
<path d="M234.59 175.879C235.908 174.366 237.425 173.081 238.994 171.766C242.058 169.246 245.122 166.727 247.285 163.358C246.946 163.006 247.017 162.418 247.339 162.027C247.515 161.857 247.72 161.738 247.926 161.62C248.183 161.472 248.41 161.272 248.667 161.124C249.129 160.858 249.536 161.445 249.427 161.849C249.332 162.041 249.237 162.233 249.032 162.351C248.996 162.645 248.939 163.021 248.66 163.25C248.411 163.53 247.992 163.635 247.617 163.577C246.064 166.936 243.154 169.367 240.487 171.863C238.978 173.281 237.439 174.647 236.099 176.241C235.374 177.001 234.76 177.834 234.226 178.689C233.641 179.574 233.27 180.473 232.574 181.284C232.325 181.565 231.891 181.405 231.867 181.008C231.941 179.117 233.346 177.281 234.59 175.879" fill="#C1A7D1"/>
<path d="M215.127 108.059L224.263 127.702L232.066 154.409L236.476 178.556L242.096 205.632L252.016 252.744L261.972 307.637C262.027 310.343 265.123 336.958 265.123 336.958L260.587 327.666L250.2 262.414L232.806 178.482L222.81 132.303L215.105 108.14L215.127 108.059Z" fill="#C1A7D1"/>
<path d="M104.59 178.774C104.012 183.35 103.656 188.072 105.012 192.56C105.846 195.432 107.714 199.146 110.609 200.488C110.558 200.517 110.536 200.598 110.514 200.679C110.419 200.871 110.346 200.981 110.332 201.195C110.326 201.54 110.372 201.856 110.549 202.165C110.697 202.421 111.029 202.641 111.404 202.698C111.456 202.668 111.566 202.742 111.669 202.682C112.575 206.745 113.848 210.733 114.988 214.729C116.099 218.674 117.234 223.015 120.348 225.805C120.518 225.981 120.767 225.7 120.648 225.495C116.443 218.202 115.462 209.734 112.813 201.817C112.864 201.788 112.856 201.656 112.827 201.604C112.862 201.31 112.825 201.126 112.758 200.891L112.699 200.788C115.105 199.264 115.726 196.306 116.259 193.671C116.916 190.418 117.492 187.144 117.082 183.821C116.93 182.609 115.267 182.336 114.749 183.455C113.597 185.967 112.658 188.493 111.86 191.144C111.729 191.63 111.569 192.064 111.439 192.55C111.139 191.08 110.706 189.619 110.223 188.187C109.651 186.601 109.056 185.095 108.249 183.576C107.442 182.057 106.502 180.546 106.135 178.841C105.926 178.004 104.638 177.788 104.539 178.804" fill="#C1A7D1"/>
<path d="M53.8906 141.762C54.1562 145.783 55.2672 149.728 57.2592 153.301C58.4734 155.407 59.8791 157.608 61.6582 159.388C62.2269 160.018 63.1866 160.97 64.0338 161.371C64.3656 161.591 64.6973 161.81 65.0805 162C65.4636 162.189 65.8587 161.688 65.6001 161.358L65.5408 161.255C65.5408 161.255 65.6357 161.064 65.6574 160.983C65.6773 160.424 65.551 160.086 65.2331 159.653C65.2253 159.521 65.2687 159.359 65.2609 159.227C65.0346 155.867 63.3743 152.513 61.7673 149.607C60.0418 146.496 57.4294 144.101 55.4984 141.109C55.0246 140.287 53.7841 140.865 53.8096 141.74" fill="#C1A7D1"/>
<path d="M53.0294 173.739C52.2493 173.573 51.7829 174.663 52.3951 175.131C53.5602 175.965 54.7253 176.798 55.9931 177.573C53.6685 177.339 51.3082 177.4 48.9045 177.623C48.0591 177.699 47.6006 178.922 48.3233 179.463C49.8498 180.568 51.4059 181.724 53.1004 182.526C54.9864 183.423 57.0325 183.886 59.0332 184.032C61.0636 184.23 63.0486 184.112 65.0849 183.965C66.0113 183.91 67.2615 183.942 68.2452 183.511C68.3558 183.584 68.4881 183.576 68.5987 183.65C69.5922 183.83 70.3528 182.775 70.0331 181.864C69.5199 180.381 67.788 179.395 66.4906 178.569C65.1635 177.692 63.7633 176.925 62.3414 176.239C60.9195 175.554 59.4541 175.03 57.9156 174.617C57.1059 174.399 56.3475 174.152 55.4864 173.964C54.6549 173.828 53.8313 173.824 53.0216 173.606" fill="#C1A7D1"/>
<path d="M78.6567 196.464C77.9733 196.585 77.4893 196.932 77.0132 197.412C76.3395 198.143 77.0503 199.375 77.947 199.269C78.5809 199.656 79.4124 199.793 80.0741 199.753C80.8385 199.655 81.2771 198.991 81.1785 198.227C81.0661 197.676 80.6376 197.17 80.1439 196.907C79.7746 196.504 79.1861 196.433 78.635 196.545" fill="#C1A7D1"/>
<path d="M89.8274 198.51C86.3275 198.611 82.9798 198.146 79.5512 197.66C78.8816 197.567 78.7017 198.56 79.4008 198.704C82.0947 199.341 84.9487 199.543 87.7138 199.591C90.6113 199.632 93.6827 199.024 96.5168 199.785C99.108 200.481 101.006 202.466 102.081 204.926C103.246 207.539 103.39 210.399 103.93 213.235C103.997 213.47 104.313 213.425 104.327 213.212C104.484 208.262 103.232 201.936 98.3834 199.462C95.7825 198.155 92.7466 198.469 89.9084 198.531" fill="#C1A7D1"/>
<path d="M87.2529 226.684C87.2529 226.684 86.9012 227.023 87.1441 227.089C99.0061 229.146 111.52 228.774 123.344 226.61C124.027 226.489 123.964 225.431 123.281 225.551C111.274 227.752 99.3323 227.931 87.2529 226.684" fill="#C1A7D1"/>
<path d="M64.7802 194.474C61.0295 194.379 57.2135 194.526 53.5693 195.327C52.7831 195.506 52.6624 196.602 53.5235 196.79C56.96 197.409 60.2721 198.169 63.7877 198.331C64.001 198.345 64.0445 198.183 64.0663 198.102C64.9274 198.29 65.8102 198.397 66.6417 198.534C67.5541 198.692 68.4449 198.931 69.3416 198.825C70.0546 198.756 70.1319 197.821 69.5789 197.456C68.7831 197.025 67.8193 196.896 66.9582 196.709L66.7448 196.695C69.6502 196.867 72.6444 197.194 75.5358 197.58C76.6616 197.752 76.8832 196.119 75.8088 195.917C72.1728 195.071 68.5605 194.621 64.8098 194.526" fill="#C1A7D1"/>
<path d="M66.2294 196.513C62.4667 197.108 58.7946 198.336 55.3082 200.004C54.0677 200.583 53.8636 202.959 55.6215 203.04C55.8861 203.024 56.1804 203.06 56.4451 203.044C59.7826 204.678 63.9104 205.309 67.452 204.568C69.3699 204.215 71.0805 203.502 72.805 202.576C73.6268 202.102 74.4999 201.599 75.3216 201.125C76.1948 200.622 77.0225 199.802 77.9549 199.401C79.3791 198.785 79.2314 196.749 77.6712 196.417C74.0135 195.652 69.9111 195.896 66.2294 196.513" fill="#C1A7D1"/>
<path d="M94.8627 235.846C91.112 235.75 87.296 235.898 83.6518 236.699C82.8656 236.878 82.7449 237.974 83.606 238.162C87.0425 238.781 90.3546 239.54 93.8702 239.703C94.0835 239.717 94.127 239.555 94.1488 239.474C95.0099 239.662 95.8927 239.769 96.7242 239.905C97.6366 240.064 98.5274 240.303 99.4241 240.196C100.137 240.127 100.214 239.193 99.6614 238.828C98.8656 238.397 97.9018 238.268 97.0407 238.08L96.8273 238.067C99.7327 238.239 102.727 238.566 105.567 238.981C106.693 239.153 106.914 237.52 105.84 237.318C102.204 236.472 98.5916 236.023 94.8409 235.927" fill="#C1A7D1"/>
<path d="M88.6408 212.949C89.5315 213.189 90.4518 213.479 91.3722 213.77C91.3208 213.799 91.2694 213.829 91.1885 213.807C89.0494 214.014 86.9677 213.846 84.8485 213.494C82.516 213.128 80.3435 212.327 78.1415 211.475C77.2725 211.155 76.4253 210.754 75.6077 210.404C76.0343 210.432 76.4609 210.46 76.8658 210.568C78.8744 210.847 80.9126 211.178 82.8778 211.619C84.8133 212.008 86.727 212.479 88.619 213.03L88.6408 212.949ZM75.0047 204.73C74.4458 204.71 73.8531 205.462 74.487 205.849C75.2907 206.412 76.0944 206.976 76.9495 207.509C77.0087 207.612 77.068 207.714 77.2299 207.758L77.2813 207.728C77.8342 208.094 78.3575 208.408 78.8513 208.671C78.3733 208.673 77.8657 208.623 77.3877 208.625C76.3508 208.607 75.2625 208.619 74.2038 208.682C73.5422 208.721 72.9022 208.679 72.3965 209.108C72.3155 209.086 72.1832 209.094 72.1022 209.072C71.9403 209.029 71.7427 209.279 71.8829 209.404C73.3678 211.148 75.4611 212.405 77.4655 213.508C79.6912 214.756 82.1361 215.673 84.5653 216.326C86.803 216.883 89.1494 217.036 91.4504 216.873C92.5604 216.78 93.6626 216.555 94.7648 216.33C95.9183 216.076 97.2041 215.813 97.7732 214.664C97.8681 214.472 97.882 214.259 97.8959 214.046C98.0934 213.795 98.2318 213.442 98.0541 213.133C97.3119 211.371 95.5938 210.172 94.0239 209.23C92.3137 208.163 90.3842 207.427 88.4843 206.744C84.096 205.305 79.5948 205.094 74.983 204.811" fill="#C1A7D1"/>
<path d="M96.3119 237.885C92.5492 238.48 88.8772 239.708 85.3907 241.376C84.1502 241.954 83.9462 244.33 85.704 244.412C85.9686 244.396 86.2629 244.432 86.5276 244.416C89.8651 246.05 93.9929 246.681 97.5345 245.94C99.4524 245.587 101.163 244.874 102.887 243.948C103.709 243.474 104.582 242.971 105.404 242.497C106.277 241.993 107.105 241.174 108.037 240.773C109.432 240.106 109.314 238.121 107.754 237.789C104.096 237.024 99.9423 237.297 96.3119 237.885" fill="#C1A7D1"/>
<path d="M71.3121 153.342C71.2205 156.269 71.1368 159.329 71.8906 162.179C72.5398 164.611 74.281 167.986 76.9453 168.572C76.9453 168.572 76.9966 168.542 77.0776 168.564C77.1803 168.505 77.2613 168.526 77.3344 168.416C78.7331 166.925 79.2097 164.666 79.6802 162.752C80.1943 160.676 80.3844 158.513 80.0452 156.382C79.9092 155.434 78.6728 155.189 78.2203 156.066C77.6729 157.134 77.1256 158.202 76.6592 159.293C75.8855 157.001 74.9064 154.828 73.6409 152.752C73.1078 151.828 71.4032 152.195 71.3338 153.261" fill="#C1A7D1"/>
<path d="M83.6993 163.788C83.2959 165.936 82.9003 168.218 83.1664 170.459C83.4306 172.223 84.1136 173.883 85.1343 175.415C85.6378 176.289 86.2953 177.073 86.9746 177.776C87.093 177.982 87.2628 178.157 87.4327 178.333C87.3299 178.392 87.2272 178.452 87.1541 178.562C86.5831 179.234 86.5355 180.219 87.1338 180.901C87.3924 181.231 87.8052 181.472 88.2318 181.5C87.6405 184.509 86.2848 187.618 86.6791 190.675C86.7698 191.308 87.7475 191.223 87.7081 190.561C87.3652 187.474 88.9421 184.512 88.7907 181.519C88.9744 181.482 89.1068 181.474 89.2905 181.437C90.0687 181.125 90.6022 180.27 90.474 179.454C90.4366 179.27 90.3695 179.035 90.2806 178.881C91.3652 177.914 91.8121 175.603 92.1166 174.469C92.6445 172.18 92.7458 169.863 92.5528 167.511C92.476 166.666 91.1429 166.134 90.6608 166.959C90.0028 167.955 89.1473 169.201 88.5051 170.461C87.6504 168.148 86.3553 166.02 85.7357 163.64C85.4891 162.619 83.9385 162.897 83.7803 163.809" fill="#C1A7D1"/>
<path d="M70.3667 182.562L70.3153 182.591C69.8512 182.38 69.3515 182.463 69.1401 182.927C69.0452 183.118 69.1933 183.375 69.4066 183.389C69.6417 183.322 70.0109 183.725 70.2321 183.871C70.2617 183.922 70.3427 183.944 70.4236 183.966C70.8442 184.339 71.2116 184.264 71.4388 184.065C72.2171 183.753 72.1245 182.643 71.2852 182.374C70.9613 182.287 70.5425 182.392 70.264 182.621" fill="#C1A7D1"/>
<path d="M74.6297 219.865C73.8792 219.75 73.4424 220.891 74.1059 221.33C75.3441 222.053 76.612 222.828 77.8719 223.47C75.5038 223.398 73.181 223.643 70.8147 224.049C69.9476 224.207 69.6214 225.421 70.3955 225.933C71.9951 226.927 73.6243 227.972 75.3919 228.664C77.3214 229.399 79.411 229.7 81.4038 229.714C83.3967 229.728 85.4548 229.5 87.4024 229.198C88.2991 229.092 89.5414 228.991 90.4955 228.51C90.6575 228.553 90.7385 228.575 90.8708 228.567C91.886 228.666 92.5657 227.59 92.1946 226.709C91.5787 225.284 89.7223 224.439 88.4327 223.745C87.0326 222.978 85.5593 222.322 84.0939 221.799C82.6285 221.275 81.1414 220.832 79.5811 220.5C78.801 220.334 77.9399 220.146 77.138 220.061C76.3065 219.924 75.4612 220.001 74.6593 219.916" fill="#C1A7D1"/>
<path d="M92.5185 226.796L92.4592 226.693C91.7897 226.6 91.1873 226.742 90.9837 227.338C90.9184 227.581 91.1257 227.941 91.4122 227.844C91.7282 227.799 92.2298 228.194 92.5319 228.362C92.5615 228.413 92.7235 228.457 92.8044 228.479C93.306 228.874 93.8057 228.791 94.106 228.481C95.0897 228.051 94.8709 226.603 93.7451 226.431C93.2889 226.351 92.8188 226.486 92.5185 226.796Z" fill="#C1A7D1"/>
<path d="M64.9129 160.522C64.9129 160.522 64.6858 160.722 64.6936 160.854L64.6423 160.884C64.6423 160.884 64.4526 161.267 64.4979 161.583C64.565 161.818 64.7131 162.075 64.8829 162.25C65.1712 162.632 65.6649 162.895 66.2021 162.995C66.4154 163.009 66.7018 162.913 66.767 162.67C67.0002 162.125 66.9095 161.492 66.562 161.009C66.1849 160.473 65.5293 160.167 64.9129 160.522" fill="#C1A7D1"/>
<path d="M57.0666 141.573C57.6269 143.85 58.6792 145.913 59.8341 147.916C60.065 148.672 60.2959 149.429 60.5268 150.185C61.0557 151.933 61.6221 153.865 62.6428 155.398C62.8205 155.706 63.1148 155.742 63.3498 155.675C63.4683 155.88 63.4544 156.094 63.5729 156.299C63.863 157.158 65.0087 156.771 65.0128 155.948C64.9721 153.029 63.9596 149.848 62.7949 147.235C61.7191 144.776 60.2324 142.553 58.1373 140.819C57.6061 140.372 56.9759 140.941 57.1179 141.543" fill="#C1A7D1"/>
<path d="M65.8328 162.592C68.0752 168.143 71.8759 173.548 76.8089 176.999C77.2512 177.292 77.7491 176.731 77.3285 176.358C75.0339 174.396 72.8717 172.426 70.9505 170.044C69.0589 167.712 67.4972 165.123 66.1923 162.385C66.0739 162.179 65.7361 162.306 65.8032 162.541" fill="#C1A7D1"/>
<path d="M70.797 183.545C73.5955 184.601 76.3722 185.737 79.2003 186.844C81.7558 187.834 84.2225 188.67 86.3256 190.537C86.3848 190.64 86.4796 190.448 86.4796 190.448C85.1035 188.299 82.2537 187.273 80.0221 186.37C77.0538 185.139 74.0934 184.04 70.965 183.243C70.8031 183.2 70.6647 183.553 70.8267 183.597" fill="#C1A7D1"/>
<path d="M75.9707 163.796C76.1818 165.111 76.0175 166.369 75.8829 167.679C75.8829 167.679 75.8098 167.789 75.8394 167.841C75.8394 167.841 75.6418 168.091 75.5983 168.253C75.3869 168.717 75.4993 169.268 75.839 169.62C75.8959 171.024 76.2985 172.435 76.8551 173.756C77.5677 175.467 78.4344 177.089 79.3011 178.71C80.1973 180.384 80.9692 182.197 82.144 183.641C82.2032 183.744 82.3573 183.655 82.2981 183.552C81.8423 181.693 80.7544 179.925 79.9095 178.223C79.1238 176.623 78.2868 175.052 77.6334 173.444C77.1656 172.277 76.8301 171.102 76.7593 169.911C76.9943 169.844 77.1702 169.674 77.3242 169.585C77.3756 169.555 77.3974 169.474 77.4191 169.393C77.7786 169.186 78.0414 168.692 77.8855 168.303C77.7296 167.914 77.3682 167.643 76.9929 167.586C76.9633 167.535 76.831 167.543 76.8014 167.491C76.8846 166.211 76.9758 165.064 76.5001 163.764C76.3738 163.426 75.9037 163.561 75.8976 163.906" fill="#C1A7D1"/>
<path d="M130.138 234.121C127.956 234.489 125.9 235.196 123.792 235.932C119.709 237.397 115.626 238.861 111.222 238.937C111.109 238.386 110.513 238.183 109.932 238.244C109.667 238.259 109.411 238.407 109.205 238.526C108.948 238.674 108.581 238.749 108.354 238.948C107.892 239.215 108.144 239.89 108.63 240.021C108.873 240.086 109.108 240.019 109.314 239.901C109.616 240.069 109.94 240.156 110.388 240.102C110.807 239.998 111.188 239.709 111.245 239.334C115.255 239.76 119.213 238.436 123.025 237.332C125.192 236.699 127.359 236.065 129.593 235.667C130.695 235.442 131.856 235.32 132.945 235.308C134.084 235.267 135.129 235.418 136.261 235.244C136.709 235.191 136.759 234.683 136.397 234.413C134.585 233.405 132.108 233.738 130.109 234.069" fill="#C1A7D1"/>
<path d="M77.6205 177.695L90.8232 197.388L111.382 219.751L131.534 237.491L153.711 258.031L192.259 293.907L238 334.188C240.514 335.818 263.673 353.671 263.673 353.671L257.533 344.209L202.311 297.691L133.536 234.078L95.9463 198.677L77.658 177.879L77.6205 177.695Z" fill="#C1A7D1"/>
<path d="M107.426 142.032C113.483 143.398 119.718 145.073 124.88 148.803C128.235 151.18 132.06 155.202 132.452 159.561C132.503 159.532 132.606 159.472 132.687 159.494C132.952 159.478 133.187 159.411 133.43 159.477C133.915 159.607 134.299 159.797 134.535 160.208C134.743 160.567 134.907 161.089 134.798 161.493C134.776 161.574 134.733 161.736 134.711 161.817C139.51 164.799 144.016 168.223 148.566 171.485C153.035 174.725 158.122 178.088 160.267 183.352C160.445 183.66 159.953 183.876 159.754 183.648C152.359 174.978 142.015 169.856 133.105 162.949C133.053 162.978 132.891 162.935 132.811 162.913C132.487 162.826 132.214 162.709 131.882 162.49L131.793 162.336L131.742 162.366C128.67 164.753 124.653 164.195 121.092 163.716C116.648 163.13 112.137 162.309 108.085 160.266C106.633 159.529 106.978 157.278 108.668 157.124C112.366 156.771 116.057 156.764 119.786 156.941C120.426 156.983 121.117 156.995 121.838 157.058C120.128 155.991 118.44 154.843 116.824 153.585C115.069 152.202 113.357 150.657 111.85 148.993C110.263 147.308 108.792 145.35 106.779 144.116C105.814 143.509 106.16 141.735 107.426 142.032" fill="#C1A7D1"/>
<path d="M107.426 142.032C113.483 143.398 119.718 145.073 124.88 148.803C128.235 151.18 132.06 155.202 132.452 159.561C132.503 159.532 132.606 159.472 132.687 159.494C132.952 159.478 133.187 159.411 133.43 159.477C133.915 159.607 134.299 159.797 134.535 160.208C134.743 160.567 134.907 161.089 134.798 161.493C134.776 161.574 134.733 161.736 134.711 161.817C139.51 164.799 144.016 168.223 148.566 171.485C153.035 174.725 158.122 178.088 160.267 183.352C160.445 183.66 159.953 183.876 159.754 183.648C152.359 174.978 142.015 169.856 133.105 162.949C133.053 162.978 132.891 162.935 132.811 162.913C132.487 162.826 132.214 162.709 131.882 162.49L131.793 162.336L131.742 162.366C128.67 164.753 124.653 164.195 121.092 163.716C116.648 163.13 112.137 162.309 108.085 160.266C106.633 159.529 106.978 157.278 108.668 157.124C112.366 156.771 116.057 156.764 119.786 156.941C120.426 156.983 121.117 156.995 121.838 157.058C120.128 155.991 118.44 154.843 116.824 153.585C115.069 152.202 113.357 150.657 111.85 148.993C110.263 147.308 108.792 145.35 106.779 144.116C105.814 143.509 106.16 141.735 107.426 142.032" stroke="#C1A7D1" stroke-width="0.26"/>
<path d="M83.2171 60.5233C88.2334 62.6951 92.7536 65.9058 96.4243 70.0169C98.5884 72.4646 100.725 75.3389 102.207 78.3848C102.8 79.412 103.534 81.0417 103.664 82.3354C103.828 82.8569 103.94 83.4079 103.972 83.9373C104.055 84.437 103.225 84.7785 102.958 84.3163L102.87 84.1622C102.87 84.1622 102.583 84.2589 102.421 84.2154C101.692 84.0197 101.323 83.6167 100.895 83.1109C100.733 83.0674 100.571 83.0239 100.379 82.9291C96.2102 81.1584 92.6441 77.466 89.6823 74.1096C86.4914 70.4746 84.6359 66.0697 81.7018 62.2866C80.8962 61.2456 82.2001 59.9463 83.2389 60.4423" fill="#C1A7D1"/>
<path d="M83.2171 60.5233C88.2334 62.6951 92.7536 65.9058 96.4243 70.0169C98.5884 72.4646 100.725 75.3389 102.207 78.3848C102.8 79.412 103.534 81.0417 103.664 82.3354C103.828 82.8569 103.94 83.4079 103.972 83.9373C104.055 84.437 103.225 84.7785 102.958 84.3163L102.87 84.1622C102.87 84.1622 102.583 84.2589 102.421 84.2154C101.692 84.0197 101.323 83.6167 100.895 83.1109C100.733 83.0674 100.571 83.0239 100.379 82.9291C96.2102 81.1584 92.6441 77.466 89.6823 74.1096C86.4914 70.4746 84.6359 66.0697 81.7018 62.2866C80.8962 61.2456 82.2001 59.9463 83.2389 60.4423" stroke="#C1A7D1" stroke-width="0.26"/>
<path d="M124.391 74.0114C124.541 72.9666 126.151 72.7912 126.479 73.8342C127.015 75.7146 127.552 77.595 127.986 79.5347C128.731 76.4359 129.882 73.4459 131.275 70.5211C131.771 69.4823 133.521 69.4314 133.886 70.6581C134.616 73.1113 135.376 75.6159 135.658 78.1224C135.955 80.8936 135.591 83.704 134.903 86.4275C134.237 89.0701 133.217 91.5742 132.146 94.108C131.628 95.2278 131.091 96.9065 130.168 97.9175C130.176 98.0499 130.162 98.2632 130.119 98.4251C129.933 99.7642 128.236 100.263 127.233 99.4732C125.588 98.1633 125.136 95.481 124.672 93.49C124.15 91.3962 123.81 89.265 123.603 87.1259C123.397 84.9868 123.403 82.8616 123.542 80.7285C123.582 79.6106 123.673 78.4631 123.793 77.367C123.966 76.2412 124.3 75.1589 124.472 74.0332" fill="#C1A7D1"/>
<path d="M124.391 74.0114C124.541 72.9666 126.151 72.7912 126.479 73.8342C127.015 75.7146 127.552 77.595 127.986 79.5347C128.731 76.4359 129.882 73.4459 131.275 70.5211C131.771 69.4823 133.521 69.4314 133.886 70.6581C134.616 73.1113 135.376 75.6159 135.658 78.1224C135.955 80.8936 135.591 83.704 134.903 86.4275C134.237 89.0701 133.217 91.5742 132.146 94.108C131.628 95.2278 131.091 96.9065 130.168 97.9175C130.176 98.0499 130.162 98.2632 130.119 98.4251C129.933 99.7642 128.236 100.263 127.233 99.4732C125.588 98.1633 125.136 95.481 124.672 93.49C124.15 91.3962 123.81 89.265 123.603 87.1259C123.397 84.9868 123.403 82.8616 123.542 80.7285C123.582 79.6106 123.673 78.4631 123.793 77.367C123.966 76.2412 124.3 75.1589 124.472 74.0332" stroke="#C1A7D1" stroke-width="0.26"/>
<path d="M141.743 117.043C142.225 116.218 142.783 115.76 143.664 115.389C144.853 114.84 146.108 116.306 145.591 117.425C145.808 118.395 145.614 119.602 145.205 120.317C144.731 121.275 143.658 121.551 142.752 121.047C142.066 120.689 141.622 119.919 141.524 119.155C141.168 118.538 141.356 117.677 141.743 117.043" fill="#C1A7D1"/>
<path d="M141.743 117.043C142.225 116.218 142.783 115.76 143.664 115.389C144.853 114.84 146.108 116.306 145.591 117.425C145.808 118.395 145.614 119.602 145.205 120.317C144.731 121.275 143.658 121.551 142.752 121.047C142.066 120.689 141.622 119.919 141.524 119.155C141.168 118.538 141.356 117.677 141.743 117.043" stroke="#C1A7D1" stroke-width="0.26"/>
<path d="M139.324 132.194C141.028 127.79 141.981 123.271 142.904 118.701C143.114 117.759 144.431 118.026 144.354 118.96C143.964 122.675 142.912 126.429 141.713 129.927C140.499 133.638 138.3 137.301 137.977 141.251C137.689 144.907 139.401 148.232 141.992 150.707C144.782 153.41 148.428 154.866 151.73 156.795C152.032 156.963 151.842 157.346 151.518 157.259C145.157 155.247 137.639 150.753 136.698 143.426C136.198 139.471 137.97 135.78 139.324 132.194" fill="#C1A7D1"/>
<path d="M139.324 132.194C141.028 127.79 141.981 123.271 142.904 118.701C143.114 117.759 144.431 118.026 144.354 118.96C143.964 122.675 142.912 126.429 141.713 129.927C140.499 133.638 138.3 137.301 137.977 141.251C137.689 144.907 139.401 148.232 141.992 150.707C144.782 153.41 148.428 154.866 151.73 156.795C152.032 156.963 151.842 157.346 151.518 157.259C145.157 155.247 137.639 150.753 136.698 143.426C136.198 139.471 137.97 135.78 139.324 132.194" stroke="#C1A7D1" stroke-width="0.26"/>
<path d="M176.408 141.675C176.408 141.675 177.054 141.371 176.997 141.747C174.236 157.847 168.135 173.615 159.998 187.751C159.515 188.576 158.153 187.993 158.635 187.168C166.867 172.84 172.5 157.685 176.408 141.675Z" fill="#C1A7D1"/>
<path d="M176.408 141.675C176.408 141.675 177.054 141.371 176.997 141.747C174.236 157.847 168.135 173.615 159.998 187.751C159.515 188.576 158.153 187.993 158.635 187.168C166.867 172.84 172.5 157.685 176.408 141.675Z" stroke="#C1A7D1" stroke-width="0.26"/>
<path d="M145.495 98.3874C147.042 93.5942 149.038 88.7478 151.706 84.4724C152.291 83.5877 153.77 83.8981 153.576 85.1049C152.844 89.7699 152.266 94.3461 150.865 98.9181C150.8 99.161 150.565 99.2281 150.403 99.1846C150.26 100.362 149.956 101.495 149.813 102.672C149.619 103.879 149.485 105.189 148.937 106.257C148.485 107.134 147.3 106.859 147.112 105.941C146.88 104.706 147.176 103.44 147.37 102.233L147.406 101.939C146.303 105.723 145.34 109.632 144.561 113.503C144.25 114.982 142.101 114.578 142.28 113.107C142.856 108.053 143.925 103.262 145.524 98.4388" fill="#C1A7D1"/>
<path d="M145.495 98.3874C147.042 93.5942 149.038 88.7478 151.706 84.4724C152.291 83.5877 153.77 83.8981 153.576 85.1049C152.844 89.7699 152.266 94.3461 150.865 98.9181C150.8 99.161 150.565 99.2281 150.403 99.1846C150.26 100.362 149.956 101.495 149.813 102.672C149.619 103.879 149.485 105.189 148.937 106.257C148.485 107.134 147.3 106.859 147.112 105.941C146.88 104.706 147.176 103.44 147.37 102.233L147.406 101.939C146.303 105.723 145.34 109.632 144.561 113.503C144.25 114.982 142.101 114.578 142.28 113.107C142.856 108.053 143.925 103.262 145.524 98.4388" stroke="#C1A7D1" stroke-width="0.26"/>
<path d="M147.439 101.167C149.959 96.6347 153.112 92.4897 156.826 88.8426C158.13 87.5433 161.259 88.34 160.569 90.5856C160.43 90.9391 160.373 91.3143 160.235 91.6678C160.769 96.6294 159.695 102.244 157.233 106.401C155.881 108.686 154.16 110.568 152.218 112.304C151.237 113.212 150.225 114.069 149.184 114.875C148.092 115.71 146.756 116.48 145.804 117.439C144.354 118.96 141.842 117.808 142.143 115.718C142.8 110.686 145.045 105.559 147.439 101.167" fill="#C1A7D1"/>
<path d="M147.439 101.167C149.959 96.6347 153.112 92.4897 156.826 88.8426C158.13 87.5433 161.259 88.34 160.569 90.5856C160.43 90.9391 160.373 91.3143 160.235 91.6678C160.769 96.6294 159.695 102.244 157.233 106.401C155.881 108.686 154.16 110.568 152.218 112.304C151.237 113.212 150.225 114.069 149.184 114.875C148.092 115.71 146.756 116.48 145.804 117.439C144.354 118.96 141.842 117.808 142.143 115.718C142.8 110.686 145.045 105.559 147.439 101.167" stroke="#C1A7D1" stroke-width="0.26"/>
<path d="M184.69 155.446C186.238 150.653 188.234 145.806 190.902 141.531C191.486 140.646 192.966 140.957 192.772 142.163C192.04 146.828 191.462 151.405 190.061 155.977C189.995 156.22 189.76 156.287 189.598 156.243C189.456 157.42 189.151 158.554 189.009 159.731C188.815 160.938 188.68 162.247 188.133 163.316C187.681 164.193 186.496 163.918 186.308 162.999C186.075 161.765 186.372 160.499 186.566 159.292L186.601 158.998C185.498 162.782 184.536 166.69 183.756 170.561C183.446 172.041 181.297 171.637 181.475 170.166C182.051 165.112 183.121 160.32 184.72 155.497" fill="#C1A7D1"/>
<path d="M184.69 155.446C186.238 150.653 188.234 145.806 190.902 141.531C191.486 140.646 192.966 140.957 192.772 142.163C192.04 146.828 191.462 151.405 190.061 155.977C189.995 156.22 189.76 156.287 189.598 156.243C189.456 157.42 189.151 158.554 189.009 159.731C188.815 160.938 188.68 162.247 188.133 163.316C187.681 164.193 186.496 163.918 186.308 162.999C186.075 161.765 186.372 160.499 186.566 159.292L186.601 158.998C185.498 162.782 184.536 166.69 183.756 170.561C183.446 172.041 181.297 171.637 181.475 170.166C182.051 165.112 183.121 160.32 184.72 155.497" stroke="#C1A7D1" stroke-width="0.26"/>
<path d="M158.294 137.202C158.21 138.481 158.127 139.761 158.125 141.063L158.271 140.842C159.496 138.219 160.236 135.466 160.732 132.648C161.316 129.505 161.289 126.373 161.151 123.167C161.102 121.895 161.053 120.623 160.953 119.381C160.8 119.948 160.7 120.485 160.547 121.052C159.992 123.767 159.517 126.505 159.175 129.234C158.854 131.883 158.533 134.531 158.345 137.172L158.294 137.202ZM153.924 115.974C154.12 115.245 155.346 114.88 155.615 115.82C155.98 117.047 156.272 118.384 156.564 119.721C156.623 119.824 156.712 119.978 156.698 120.192L156.655 120.353C156.804 121.088 156.984 121.874 157.112 122.69C157.286 122.042 157.541 121.416 157.715 120.769C158.166 119.414 158.616 118.059 159.229 116.748C159.579 115.93 159.848 115.091 160.618 114.646C160.61 114.514 160.654 114.352 160.675 114.271C160.741 114.028 161.078 113.902 161.226 114.159C162.766 116.829 163.411 120.085 163.887 123.164C164.407 126.559 164.509 130.059 164.184 133.531C163.917 136.628 163.01 139.683 161.771 142.519C161.136 143.912 160.443 145.201 159.587 146.447C158.71 147.774 157.848 149.366 156.106 149.549C155.842 149.565 155.547 149.529 155.275 149.413C154.886 149.569 154.408 149.571 153.987 149.197C152.024 147.455 151.381 144.678 150.813 142.268C150.229 139.593 150.115 136.785 150.193 134.071C150.352 127.82 152.102 121.952 153.873 116.004" fill="#C1A7D1"/>
<path d="M153.924 115.974C154.12 115.245 155.346 114.88 155.615 115.82C155.98 117.047 156.272 118.384 156.564 119.721C156.623 119.824 156.712 119.978 156.698 120.192L156.655 120.353C156.804 121.088 156.984 121.874 157.112 122.69C157.286 122.042 157.541 121.416 157.715 120.769C158.166 119.414 158.616 118.059 159.229 116.748C159.579 115.93 159.848 115.091 160.618 114.646C160.61 114.514 160.654 114.352 160.675 114.271C160.741 114.028 161.078 113.902 161.226 114.159C162.766 116.829 163.411 120.085 163.887 123.164C164.407 126.559 164.509 130.059 164.184 133.531C163.917 136.628 163.01 139.683 161.771 142.519C161.136 143.912 160.443 145.201 159.587 146.447C158.71 147.774 157.848 149.366 156.106 149.549C155.842 149.565 155.547 149.529 155.275 149.413C154.886 149.569 154.408 149.571 153.987 149.197C152.024 147.455 151.381 144.678 150.813 142.268C150.229 139.593 150.115 136.785 150.193 134.071C150.352 127.82 152.102 121.952 153.873 116.004M158.294 137.202C158.21 138.481 158.127 139.761 158.125 141.063L158.271 140.842C159.496 138.219 160.236 135.466 160.732 132.648C161.316 129.505 161.289 126.373 161.151 123.167C161.102 121.895 161.053 120.623 160.953 119.381C160.8 119.948 160.7 120.485 160.547 121.052C159.992 123.767 159.517 126.505 159.175 129.234C158.854 131.883 158.533 134.531 158.345 137.172L158.294 137.202Z" stroke="#C1A7D1" stroke-width="0.26"/>
<path d="M186.635 158.225C189.155 153.693 192.308 149.548 196.022 145.901C197.326 144.602 200.454 145.399 199.764 147.644C199.626 147.998 199.569 148.373 199.43 148.726C199.964 153.688 198.89 159.303 196.428 163.46C195.077 165.745 193.356 167.627 191.414 169.362C190.432 170.27 189.421 171.127 188.38 171.933C187.287 172.768 185.952 173.538 185 174.498C183.55 176.018 181.038 174.866 181.338 172.777C181.995 167.744 184.24 162.617 186.635 158.225" fill="#C1A7D1"/>
<path d="M186.635 158.225C189.155 153.693 192.308 149.548 196.022 145.901C197.326 144.602 200.454 145.399 199.764 147.644C199.626 147.998 199.569 148.373 199.43 148.726C199.964 153.688 198.89 159.303 196.428 163.46C195.077 165.745 193.356 167.627 191.414 169.362C190.432 170.27 189.421 171.127 188.38 171.933C187.287 172.768 185.952 173.538 185 174.498C183.55 176.018 181.038 174.866 181.338 172.777C181.995 167.744 184.24 162.617 186.635 158.225" stroke="#C1A7D1" stroke-width="0.26"/>
<path d="M90.0304 88.0066C93.8441 89.161 97.7465 90.4694 101.042 92.7436C103.815 94.7036 107.381 98.3959 106.91 102.089C106.91 102.089 106.888 102.17 106.867 102.251C106.823 102.413 106.72 102.472 106.566 102.561C104.056 103.667 100.951 103.267 98.2511 102.976C95.3379 102.671 92.5038 101.91 89.9246 100.523C88.797 99.8727 89.07 98.2097 90.3341 98.0283C91.9142 97.8016 93.5753 97.5966 95.1337 97.4508C92.5449 95.4533 90.2563 93.1458 88.1949 90.6389C87.2787 89.5247 88.5137 87.5124 89.9198 87.9334" fill="#C1A7D1"/>
<path d="M90.0304 88.0066C93.8441 89.161 97.7465 90.4694 101.042 92.7436C103.815 94.7036 107.381 98.3959 106.91 102.089C106.91 102.089 106.888 102.17 106.867 102.251C106.823 102.413 106.72 102.472 106.566 102.561C104.056 103.667 100.951 103.267 98.2511 102.976C95.3379 102.671 92.5038 101.91 89.9246 100.523C88.797 99.8727 89.07 98.2097 90.3341 98.0283C91.9142 97.8016 93.5753 97.5966 95.1337 97.4508C92.5449 95.4533 90.2563 93.1458 88.1949 90.6389C87.2787 89.5247 88.5137 87.5124 89.9198 87.9334" stroke="#C1A7D1" stroke-width="0.26"/>
<path d="M97.7065 108.559C100.657 109.048 103.74 109.529 106.4 110.938C108.567 112.084 110.338 113.731 111.86 115.659C112.696 116.752 113.428 117.903 114.109 119.085C114.257 119.342 114.435 119.65 114.583 119.906C114.737 119.818 114.84 119.758 114.994 119.67C116.14 119.283 117.384 119.66 117.976 120.687C118.272 121.201 118.333 121.782 118.262 122.37C122.441 122.972 126.911 122.653 130.691 124.58C131.457 124.959 130.896 126.241 130.1 125.81C126.328 124.016 121.823 124.629 118.037 123.048C117.942 123.239 117.796 123.46 117.701 123.652C116.984 124.545 115.668 124.756 114.629 124.26C114.357 124.143 114.157 123.916 113.988 123.74C112.293 124.717 109.129 124.215 107.525 124.045C104.398 123.726 101.314 122.767 98.4184 121.425C97.3796 120.929 97.2398 119.025 98.5257 118.763C100.098 118.404 102.03 117.837 103.926 117.565C101.381 115.406 99.2085 112.826 96.4952 110.969C95.3301 110.135 96.3675 108.373 97.6256 108.538" fill="#C1A7D1"/>
<path d="M97.7065 108.559C100.657 109.048 103.74 109.529 106.4 110.938C108.567 112.084 110.338 113.731 111.86 115.659C112.696 116.752 113.428 117.903 114.109 119.085C114.257 119.342 114.435 119.65 114.583 119.906C114.737 119.818 114.84 119.758 114.994 119.67C116.14 119.283 117.384 119.66 117.976 120.687C118.272 121.201 118.333 121.782 118.262 122.37C122.441 122.972 126.911 122.653 130.691 124.58C131.457 124.959 130.896 126.241 130.1 125.81C126.328 124.016 121.823 124.629 118.037 123.048C117.942 123.239 117.796 123.46 117.701 123.652C116.984 124.545 115.668 124.756 114.629 124.26C114.357 124.143 114.157 123.916 113.988 123.74C112.293 124.717 109.129 124.215 107.525 124.045C104.398 123.726 101.314 122.767 98.4184 121.425C97.3796 120.929 97.2398 119.025 98.5257 118.763C100.098 118.404 102.03 117.837 103.926 117.565C101.381 115.406 99.2085 112.826 96.4952 110.969C95.3301 110.135 96.3675 108.373 97.6256 108.538" stroke="#C1A7D1" stroke-width="0.26"/>
<path d="M127.75 100.133L127.691 100.03C127.732 99.3904 128.068 98.7861 128.73 98.7467C128.995 98.731 129.305 99.0313 129.137 99.3334C128.969 99.6356 129.273 100.282 129.318 100.598C129.377 100.7 129.356 100.781 129.363 100.914L129.423 101.016C129.616 101.589 129.405 102.053 128.994 102.29C128.277 103.183 126.884 102.548 126.946 101.349C126.995 100.842 127.288 100.4 127.699 100.163" fill="#C1A7D1"/>
<path d="M127.75 100.133L127.691 100.03C127.732 99.3904 128.068 98.7861 128.73 98.7467C128.995 98.731 129.305 99.0313 129.137 99.3334C128.969 99.6356 129.273 100.282 129.318 100.598C129.377 100.7 129.356 100.781 129.363 100.914L129.423 101.016C129.616 101.589 129.405 102.053 128.994 102.29C128.277 103.183 126.884 102.548 126.946 101.349C126.995 100.842 127.288 100.4 127.699 100.163" stroke="#C1A7D1" stroke-width="0.26"/>
<path d="M173.458 122.435C173.69 121.412 175.307 121.369 175.502 122.42C175.907 124.308 176.26 126.226 176.562 128.174C177.55 125.14 178.921 122.296 180.557 119.437C181.134 118.42 182.871 118.582 183.125 119.736C183.672 122.226 184.248 124.769 184.346 127.313C184.43 130.07 183.853 132.866 182.973 135.495C182.064 138.072 180.882 140.533 179.59 142.921C179.042 143.989 178.343 145.624 177.31 146.562C177.266 146.724 177.304 146.908 177.26 147.07C176.942 148.417 175.237 148.784 174.307 147.883C172.787 146.433 172.519 143.713 172.187 141.714C171.848 139.583 171.641 137.444 171.648 135.318C171.573 133.172 171.742 131.09 172.042 129C172.215 127.874 172.335 126.778 172.588 125.674C172.841 124.57 173.286 123.561 173.51 122.406" fill="#C1A7D1"/>
<path d="M173.458 122.435C173.69 121.412 175.307 121.369 175.502 122.42C175.907 124.308 176.26 126.226 176.562 128.174C177.55 125.14 178.921 122.296 180.557 119.437C181.134 118.42 182.871 118.582 183.125 119.736C183.672 122.226 184.248 124.769 184.346 127.313C184.43 130.07 183.853 132.866 182.973 135.495C182.064 138.072 180.882 140.533 179.59 142.921C179.042 143.989 178.343 145.624 177.31 146.562C177.266 146.724 177.304 146.908 177.26 147.07C176.942 148.417 175.237 148.784 174.307 147.883C172.787 146.433 172.519 143.713 172.187 141.714C171.848 139.583 171.641 137.444 171.648 135.318C171.573 133.172 171.742 131.09 172.042 129C172.215 127.874 172.335 126.778 172.588 125.674C172.841 124.57 173.286 123.561 173.51 122.406" stroke="#C1A7D1" stroke-width="0.26"/>
<path d="M174.206 148.42C174.206 148.42 174.147 148.317 174.169 148.236C174.254 147.434 174.663 146.72 175.568 146.745C175.913 146.751 176.282 147.154 176.012 147.516C175.741 147.877 176.112 148.758 176.136 149.155C176.195 149.258 176.152 149.42 176.159 149.552L176.219 149.655C176.398 150.441 176.084 150.964 175.541 151.209C174.537 152.198 172.813 151.345 173.094 149.814C173.165 149.226 173.582 148.643 174.155 148.45" fill="#C1A7D1"/>
<path d="M174.206 148.42C174.206 148.42 174.147 148.317 174.169 148.236C174.254 147.434 174.663 146.72 175.568 146.745C175.913 146.751 176.282 147.154 176.012 147.516C175.741 147.877 176.112 148.758 176.136 149.155C176.195 149.258 176.152 149.42 176.159 149.552L176.219 149.655C176.398 150.441 176.084 150.964 175.541 151.209C174.537 152.198 172.813 151.345 173.094 149.814C173.165 149.226 173.582 148.643 174.155 148.45" stroke="#C1A7D1" stroke-width="0.26"/>
<path d="M102.145 83.1428C102.145 83.1428 102.504 82.9355 102.696 83.0303L102.799 82.9711C103.144 82.9771 103.379 82.91 103.711 83.1293C104.013 83.2973 104.242 83.5758 104.42 83.884C104.775 84.5003 104.896 85.1837 104.751 85.8829C104.664 86.2068 104.415 86.4872 104.07 86.4812C103.224 86.558 102.458 86.1786 102.044 85.4595C101.599 84.6891 101.382 83.7193 102.145 83.1428Z" fill="#C1A7D1"/>
<path d="M102.145 83.1428C102.145 83.1428 102.504 82.9355 102.696 83.0303L102.799 82.9711C103.144 82.9771 103.379 82.91 103.711 83.1293C104.013 83.2973 104.242 83.5758 104.42 83.884C104.775 84.5003 104.896 85.1837 104.751 85.8829C104.664 86.2068 104.415 86.4872 104.07 86.4812C103.224 86.558 102.458 86.1786 102.044 85.4595C101.599 84.6891 101.382 83.7193 102.145 83.1428Z" stroke="#C1A7D1" stroke-width="0.26"/>
<path d="M81.5195 64.5815C84.1736 66.3361 86.3003 68.6001 88.3538 70.9747C89.1871 71.5891 90.1014 72.2253 90.9348 72.8398C92.9332 74.288 95.1015 75.9121 96.6534 77.8915C96.9417 78.2728 96.8843 78.6481 96.6868 78.8988C96.9376 79.0964 97.1587 79.2426 97.4095 79.4402C98.3317 80.2087 97.3438 81.4627 96.3129 81.099C92.6455 79.7234 89.0317 77.0167 86.2416 74.314C83.6212 71.7872 81.4553 68.8616 80.192 65.4838C79.8723 64.5732 80.9291 64.0323 81.5926 64.471" stroke="#C1A7D1" stroke-width="0.26"/>
<path d="M104.366 85.2153C110.395 90.5674 115.615 97.9595 117.808 105.797C117.98 106.451 117.047 106.852 116.795 106.176C115.294 102.388 113.824 98.6503 111.626 95.1953C109.51 91.7621 106.902 88.544 104.023 85.6873C103.794 85.4088 104.116 85.0178 104.396 85.2667" fill="#C1A7D1"/>
<path d="M104.366 85.2153C110.395 90.5674 115.615 97.9595 117.808 105.797C117.98 106.451 117.047 106.852 116.795 106.176C115.294 102.388 113.824 98.6503 111.626 95.1953C109.51 91.7621 106.902 88.544 104.023 85.6873C103.794 85.4088 104.116 85.0178 104.396 85.2667" stroke="#C1A7D1" stroke-width="0.26"/>
<path d="M128.791 101.107C128.821 105.196 129.035 109.247 129.198 113.327C129.338 117.011 129.256 120.548 130.659 124.05C130.719 124.153 130.513 124.272 130.454 124.169C128.325 121.427 128.376 117.36 128.179 114.052C127.949 109.736 127.851 105.413 128.261 101.139C128.297 100.844 128.775 100.842 128.769 101.188" fill="#C1A7D1"/>
<path d="M128.791 101.107C128.821 105.196 129.035 109.247 129.198 113.327C129.338 117.011 129.256 120.548 130.659 124.05C130.719 124.153 130.513 124.272 130.454 124.169C128.325 121.427 128.376 117.36 128.179 114.052C127.949 109.736 127.851 105.413 128.261 101.139C128.297 100.844 128.775 100.842 128.769 101.188" stroke="#C1A7D1" stroke-width="0.26"/>
<path d="M101.294 98.7578C102.805 99.5976 104.578 99.9436 106.279 100.4C106.33 100.371 106.411 100.392 106.492 100.414C106.492 100.414 106.911 100.31 107.043 100.302C107.705 100.262 108.338 100.65 108.664 101.215C110.461 101.958 112.018 103.114 113.449 104.41C115.301 106.079 117.007 107.97 118.684 109.809C120.441 111.67 122.382 113.493 123.707 115.672C123.796 115.826 123.642 115.915 123.531 115.842C121.371 114.35 119.546 112.254 117.789 110.393C116.12 108.686 114.525 106.869 112.732 105.302C111.47 104.182 110.113 103.253 108.611 102.546C108.413 102.797 108.186 102.996 107.899 103.093C107.797 103.152 107.745 103.182 107.583 103.138C107.099 103.486 106.446 103.657 105.944 103.262C105.494 102.837 105.381 102.286 105.431 101.779C105.372 101.676 105.445 101.565 105.437 101.433C103.736 100.976 102.198 100.563 100.774 99.3996C100.413 99.1289 100.8 98.495 101.213 98.736" fill="#C1A7D1"/>
<path d="M101.294 98.7578C102.805 99.5976 104.578 99.9436 106.279 100.4C106.33 100.371 106.411 100.392 106.492 100.414C106.492 100.414 106.911 100.31 107.043 100.302C107.705 100.262 108.338 100.65 108.664 101.215C110.461 101.958 112.018 103.114 113.449 104.41C115.301 106.079 117.007 107.97 118.684 109.809C120.441 111.67 122.382 113.493 123.707 115.672C123.796 115.826 123.642 115.915 123.531 115.842C121.371 114.35 119.546 112.254 117.789 110.393C116.12 108.686 114.525 106.869 112.732 105.302C111.47 104.182 110.113 103.253 108.611 102.546C108.413 102.797 108.186 102.996 107.899 103.093C107.797 103.152 107.745 103.182 107.583 103.138C107.099 103.486 106.446 103.657 105.944 103.262C105.494 102.837 105.381 102.286 105.431 101.779C105.372 101.676 105.445 101.565 105.437 101.433C103.736 100.976 102.198 100.563 100.774 99.3996C100.413 99.1289 100.8 98.495 101.213 98.736" stroke="#C1A7D1" stroke-width="0.26"/>
<path d="M166.501 199.741C167.939 197.132 169.82 194.816 171.701 192.5C175.441 187.948 179.1 183.375 181.24 177.829C180.577 177.39 180.581 176.567 180.939 175.882C181.107 175.579 181.385 175.35 181.664 175.121C181.994 174.863 182.235 174.45 182.565 174.191C183.173 173.704 183.904 174.377 183.862 175.017C183.826 175.311 183.658 175.614 183.431 175.813C183.514 176.313 183.486 176.739 183.223 177.233C182.961 177.727 182.396 178.053 181.837 178.033C180.585 183.339 177.051 187.773 173.913 192.182C172.121 194.653 170.329 197.123 168.788 199.791C168.043 201.11 167.328 202.481 166.774 203.895C166.169 205.339 165.91 206.788 165.165 208.107C164.903 208.601 164.203 208.457 164.091 207.906C163.58 205.121 165.179 202.077 166.552 199.712" fill="#C1A7D1"/>
<path d="M166.501 199.741C167.939 197.132 169.82 194.816 171.701 192.5C175.441 187.948 179.1 183.375 181.24 177.829C180.577 177.39 180.581 176.567 180.939 175.882C181.107 175.579 181.385 175.35 181.664 175.121C181.994 174.863 182.235 174.45 182.565 174.191C183.173 173.704 183.904 174.377 183.862 175.017C183.826 175.311 183.658 175.614 183.431 175.813C183.514 176.313 183.486 176.739 183.223 177.233C182.961 177.727 182.396 178.053 181.837 178.033C180.585 183.339 177.051 187.773 173.913 192.182C172.121 194.653 170.329 197.123 168.788 199.791C168.043 201.11 167.328 202.481 166.774 203.895C166.169 205.339 165.91 206.788 165.165 208.107C164.903 208.601 164.203 208.457 164.091 207.906C163.58 205.121 165.179 202.077 166.552 199.712" stroke="#C1A7D1" stroke-width="0.26"/>
<path d="M118.262 107.178L137.378 132.973L156.595 169.387L170.102 203.139L186.228 240.719L214.529 306.181L245.167 382.819C246.065 386.75 258.345 424.426 258.345 424.426L249.069 412.255L214.725 320.645L164.708 203.991L136.597 139.926L118.313 107.148L118.262 107.178Z" fill="#C1A7D1"/>
<path d="M118.262 107.178L137.378 132.973L156.595 169.387L170.102 203.139L186.228 240.719L214.529 306.181L245.167 382.819C246.065 386.75 258.345 424.426 258.345 424.426L249.069 412.255L214.725 320.645L164.708 203.991L136.597 139.926L118.313 107.148L118.262 107.178Z" stroke="#C1A7D1" stroke-width="0.26"/>
<path d="M193.317 172.782L195.705 183.45L201.394 196.046L207.905 206.39L214.878 218.246L226.842 238.995L241.677 262.469C242.667 263.473 250.738 274.148 250.738 274.148L249.718 269.056L231.382 241.647L209.885 204.838L198.231 184.388L193.42 172.722L193.317 172.782Z" fill="#C1A7D1"/>
<path d="M208.364 163.627L209.619 174.468L213.906 187.6L219.288 198.595L224.947 211.14L234.746 233.001L247.013 257.955C247.849 259.048 254.798 270.507 254.798 270.507L254.278 265.332L238.891 236.154L221.334 197.278L211.926 175.739L208.364 163.627V163.627Z" fill="#C1A7D1"/>
</svg>
