<svg width="683" height="295" viewBox="0 0 683 295" fill="none" xmlns="http://www.w3.org/2000/svg">
<path d="M20.49 95.3077H669.34L648.85 288.192H0L20.49 95.3077Z" fill="#0233FB"/>
<path d="M31.8733 103.226H88.2555L96.7615 183.373C97.0045 185.063 97.0045 186.994 97.0045 188.926C97.0045 197.375 95.5463 213.066 93.8451 228.034L97.7336 209.445C100.65 195.444 103.323 186.753 104.052 183.373L130.542 103.226H180.606L190.327 183.373C190.813 186.753 191.056 195.444 191.056 209.445V228.034C192.514 208.962 195.43 190.615 197.618 183.373L223.135 103.226H279.518L214.386 277.281H159.948L149.984 196.651C149.984 195.444 149.741 193.754 149.741 192.547C149.984 186.511 149.741 176.372 150.47 161.888L151.443 144.265L148.283 161.888C144.395 183.856 142.451 193.754 141.478 196.651L114.259 277.281H59.8214L31.8733 103.226Z" fill="white"/>
<path d="M265.202 277.281L283.915 103.226H337.867L319.64 277.281H265.202Z" fill="white"/>
<path d="M335.395 277.281L354.108 103.226H411.705L445.243 173.475C446.458 176.614 448.645 183.132 452.777 199.789L456.665 215.239C454.964 200.755 453.992 187.718 453.992 179.269C453.992 176.614 453.992 173.717 454.478 171.061L461.526 103.226H515.964L497.494 277.281H441.598L405.387 203.41C404.657 201.962 396.881 175.165 393.964 162.129C395.665 178.304 397.61 196.892 397.61 202.444C397.61 203.41 397.367 204.376 397.367 205.583L389.833 277.281H335.395Z" fill="white"/>
<path d="M507.741 259.417L526.697 213.791C538.362 226.585 554.888 238.414 569.956 238.414C580.649 238.414 588.912 232.379 588.912 224.895C588.912 219.584 590.613 218.86 565.581 211.859C534.717 202.444 523.294 187.96 523.294 165.268C523.294 156.336 526.697 145.472 532.043 136.057C545.41 112.399 569.226 99.8462 600.334 99.8462C618.804 99.8462 635.816 104.191 651.127 113.606L630.226 155.853C617.589 146.679 606.653 142.334 596.445 142.334C587.94 142.334 581.378 146.679 581.378 152.714C581.378 154.887 582.836 158.025 585.023 159.957C587.697 161.646 590.613 163.095 602.521 166.475C632.17 174.682 643.836 186.994 643.836 211.859C643.836 251.933 611.756 281.385 567.768 281.385C544.438 281.385 525.239 274.384 507.741 259.417Z" fill="white"/>
<path d="M20.49 84.2814L29.261 1.60536H80.0645L78.0142 21.443H52.4985L51.3594 32.2219H73.7995L71.7491 52.0595H49.4229L48.056 64.4437H74.2552L72.3187 84.2814H20.49Z" fill="white"/>
<path d="M80.2283 1.60536H108.022L114.629 38.758C114.971 40.0193 115.084 41.2807 115.084 44.4914C115.084 48.5048 114.743 54.2382 114.515 59.6277C115.996 50.2248 117.818 41.0513 118.73 38.758L133.196 1.60536H160.99L122.83 84.2814H101.074L80.2283 1.60536Z" fill="white"/>
<path d="M152.589 84.2814L161.36 1.60536H212.164L210.113 21.443H184.598L183.458 32.2219H205.899L203.848 52.0595H181.522L180.155 64.4437H206.354L204.418 84.2814H152.589Z" fill="white"/>
<path d="M211.074 84.2814L219.845 1.60536H255.271C273.041 1.60536 282.951 8.0268 282.951 23.6217C282.951 36.5793 275.547 46.6701 264.156 49.3075L281.47 84.2814H252.082L239.893 53.0915L236.59 84.2814H211.074ZM243.083 21.443L241.374 37.9553H245.361C251.854 37.9553 255.841 34.1712 255.841 28.2085C255.841 23.5071 253.449 21.443 247.867 21.443H243.083Z" fill="white"/>
<path d="M281.937 1.60536H310.072L315.654 18.5763C316.223 20.411 316.793 25.9151 316.907 31.1899C318.274 25.3418 319.868 20.2963 320.78 18.5763L329.892 1.60536H358.028L327.842 48.1608L323.969 84.2814H298.681L302.326 48.1608L281.937 1.60536Z" fill="white"/>
<path d="M381.413 84.2814L390.184 1.60536H422.762C442.013 1.60536 452.493 8.0268 452.493 26.1444C452.493 46.4408 441.671 58.5956 420.028 58.5956H409.549L406.929 84.2814H381.413ZM413.422 22.2457L411.713 38.07H416.383C422.534 38.07 426.293 34.4006 426.293 29.0111C426.293 24.5391 423.674 22.2457 418.206 22.2457H413.422Z" fill="white"/>
<path d="M451.69 84.2814L460.461 1.60536H511.264L509.214 21.443H483.698L482.559 32.2219H504.999L502.949 52.0595H480.623L479.256 64.4437H505.455L503.519 84.2814H451.69Z" fill="white"/>
<path d="M510.175 84.2814L518.946 1.60536H551.524C570.775 1.60536 581.254 8.0268 581.254 26.1444C581.254 46.4408 570.433 58.5956 548.79 58.5956H538.311L535.691 84.2814H510.175ZM542.184 22.2457L540.475 38.07H545.145C551.296 38.07 555.055 34.4006 555.055 29.0111C555.055 24.5391 552.435 22.2457 546.968 22.2457H542.184Z" fill="white"/>
<path d="M577.718 75.7959L586.603 54.1236C592.071 60.201 599.816 65.8198 606.879 65.8198C611.891 65.8198 615.764 62.953 615.764 59.3983C615.764 56.8756 616.561 56.5316 604.828 53.2062C590.362 48.7341 585.008 41.854 585.008 31.0752C585.008 26.8324 586.603 21.6724 589.109 17.2003C595.374 5.96276 606.537 0 621.117 0C629.774 0 637.748 2.06404 644.924 6.53611L635.128 26.6031C629.205 22.2457 624.079 20.1817 619.295 20.1817C615.308 20.1817 612.232 22.2457 612.232 25.1124C612.232 26.1444 612.916 27.6351 613.941 28.5525C615.194 29.3552 616.561 30.0432 622.143 31.6485C636.04 35.5473 641.507 41.3954 641.507 53.2062C641.507 72.2412 626.471 86.2308 605.854 86.2308C594.918 86.2308 585.919 82.9054 577.718 75.7959Z" fill="white"/>
<path d="M644.388 84.2814L653.159 1.60536H678.447L669.903 84.2814H644.388Z" fill="white"/>
</svg>
